<svg xmlns="http://www.w3.org/2000/svg" xmlns:xlink="http://www.w3.org/1999/xlink" contentStyleType="text/css" height="781px" preserveAspectRatio="none" style="width:907px;height:781px;background:#FFFFFF;" version="1.1" viewBox="0 0 907 781" width="907px" zoomAndPan="magnify"><defs/><g><!--class XdsClientPoolFactory--><g id="elem_XdsClientPoolFactory"><rect codeLine="1" fill="#F1F1F1" height="64.2969" id="XdsClientPoolFactory" rx="2.5" ry="2.5" style="stroke:#181818;stroke-width:0.5;" width="180.1895" x="114.51" y="7"/><ellipse cx="129.51" cy="23" fill="#B4A7E5" rx="11" ry="11" style="stroke:#181818;stroke-width:1.0;"/><path d="M125.4319,18.7656 L125.4319,16.6094 L132.8225,16.6094 L132.8225,18.7656 L130.3538,18.7656 L130.3538,26.8438 L132.8225,26.8438 L132.8225,29 L125.4319,29 L125.4319,26.8438 L127.9006,26.8438 L127.9006,18.7656 L125.4319,18.7656 Z " fill="#000000"/><text fill="#000000" font-family="sans-serif" font-size="14" font-style="italic" lengthAdjust="spacing" textLength="148.1895" x="143.51" y="27.8467">XdsClientPoolFactory</text><line style="stroke:#181818;stroke-width:0.5;" x1="115.51" x2="293.6995" y1="39" y2="39"/><line style="stroke:#181818;stroke-width:0.5;" x1="115.51" x2="293.6995" y1="47" y2="47"/><ellipse cx="125.51" cy="60.6484" fill="#84BE84" rx="3" ry="3" style="stroke:#038048;stroke-width:1.0;"/><text fill="#000000" font-family="sans-serif" font-size="14" lengthAdjust="spacing" textLength="97.5146" x="134.51" y="63.9951">getOrCreate()</text></g><!--class SharedXdsClientPoolProvider--><g id="elem_SharedXdsClientPoolProvider"><rect codeLine="4" fill="#F1F1F1" height="48" id="SharedXdsClientPoolProvider" rx="2.5" ry="2.5" style="stroke:#181818;stroke-width:0.5;" width="235.5537" x="38.83" y="148.6"/><ellipse cx="53.83" cy="164.6" fill="#ADD1B2" rx="11" ry="11" style="stroke:#181818;stroke-width:1.0;"/><path d="M56.7988,170.2406 Q56.2206,170.5375 55.58,170.6781 Q54.9394,170.8344 54.2363,170.8344 Q51.7363,170.8344 50.4081,169.1938 Q49.0956,167.5375 49.0956,164.4125 Q49.0956,161.2875 50.4081,159.6313 Q51.7363,157.975 54.2363,157.975 Q54.9394,157.975 55.58,158.1313 Q56.2363,158.2875 56.7988,158.5844 L56.7988,161.3031 Q56.1738,160.725 55.58,160.4594 Q54.9863,160.1781 54.3613,160.1781 Q53.0175,160.1781 52.33,161.2563 Q51.6425,162.3188 51.6425,164.4125 Q51.6425,166.5063 52.33,167.5844 Q53.0175,168.6469 54.3613,168.6469 Q54.9863,168.6469 55.58,168.3813 Q56.1738,168.1 56.7988,167.5219 L56.7988,170.2406 Z " fill="#000000"/><text fill="#000000" font-family="sans-serif" font-size="14" lengthAdjust="spacing" textLength="203.5537" x="67.83" y="169.4467">SharedXdsClientPoolProvider</text><line style="stroke:#181818;stroke-width:0.5;" x1="39.83" x2="273.3837" y1="180.6" y2="180.6"/><line style="stroke:#181818;stroke-width:0.5;" x1="39.83" x2="273.3837" y1="188.6" y2="188.6"/></g><!--class XdsClient--><g id="elem_XdsClient"><rect codeLine="5" fill="#F1F1F1" height="48" id="XdsClient" rx="2.5" ry="2.5" style="stroke:#181818;stroke-width:0.5;" width="166.6377" x="380.29" y="15.15"/><ellipse cx="395.29" cy="31.15" fill="#A9DCDF" rx="11" ry="11" style="stroke:#181818;stroke-width:1.0;"/><path d="M395.3994,26.4938 L394.2431,31.5719 L396.5713,31.5719 L395.3994,26.4938 Z M393.915,24.2594 L396.8994,24.2594 L400.2588,36.65 L397.8056,36.65 L397.04,33.5875 L393.7588,33.5875 L393.0088,36.65 L390.5713,36.65 L393.915,24.2594 Z " fill="#000000"/><text fill="#000000" font-family="sans-serif" font-size="14" font-style="italic" lengthAdjust="spacing" textLength="66.3018" x="409.29" y="35.9967">XdsClient</text><rect fill="#FFFFFF" height="15.9688" style="stroke:#181818;stroke-width:1.0;stroke-dasharray:2.0,2.0;" width="66.3359" x="483.5918" y="12.15"/><text fill="#000000" font-family="sans-serif" font-size="12" font-style="italic" lengthAdjust="spacing" textLength="64.3359" x="484.5918" y="24.2887">ObjectPool</text><line style="stroke:#181818;stroke-width:0.5;" x1="381.29" x2="545.9277" y1="47.15" y2="47.15"/><line style="stroke:#181818;stroke-width:0.5;" x1="381.29" x2="545.9277" y1="55.15" y2="55.15"/></g><!--class XdsClientImpl--><g id="elem_XdsClientImpl"><rect codeLine="6" fill="#F1F1F1" height="80.5938" id="XdsClientImpl" rx="2.5" ry="2.5" style="stroke:#181818;stroke-width:0.5;" width="324.5928" x="328.31" y="132.3"/><ellipse cx="343.31" cy="148.3" fill="#ADD1B2" rx="11" ry="11" style="stroke:#181818;stroke-width:1.0;"/><path d="M346.2788,153.9406 Q345.7006,154.2375 345.06,154.3781 Q344.4194,154.5344 343.7163,154.5344 Q341.2163,154.5344 339.8881,152.8938 Q338.5756,151.2375 338.5756,148.1125 Q338.5756,144.9875 339.8881,143.3313 Q341.2163,141.675 343.7163,141.675 Q344.4194,141.675 345.06,141.8313 Q345.7163,141.9875 346.2788,142.2844 L346.2788,145.0031 Q345.6538,144.425 345.06,144.1594 Q344.4663,143.8781 343.8413,143.8781 Q342.4975,143.8781 341.81,144.9563 Q341.1225,146.0188 341.1225,148.1125 Q341.1225,150.2063 341.81,151.2844 Q342.4975,152.3469 343.8413,152.3469 Q344.4663,152.3469 345.06,152.0813 Q345.6538,151.8 346.2788,151.2219 L346.2788,153.9406 Z " fill="#000000"/><text fill="#000000" font-family="sans-serif" font-size="14" lengthAdjust="spacing" textLength="96.8447" x="357.31" y="153.1467">XdsClientImpl</text><rect fill="#FFFFFF" height="15.9688" style="stroke:#181818;stroke-width:1.0;stroke-dasharray:2.0,2.0;" width="193.748" x="462.1547" y="129.3"/><text fill="#000000" font-family="sans-serif" font-size="12" font-style="italic" lengthAdjust="spacing" textLength="191.748" x="463.1547" y="141.4387">RefCountedXdsClientObjectPool</text><line style="stroke:#181818;stroke-width:0.5;" x1="329.31" x2="651.9028" y1="164.3" y2="164.3"/><rect fill="none" height="6" style="stroke:#C82930;stroke-width:1.0;" width="6" x="336.31" y="174.9484"/><text fill="#000000" font-family="sans-serif" font-size="14" lengthAdjust="spacing" textLength="235.8262" x="348.31" y="181.2951">resourceSubscribers[type][name]</text><rect fill="none" height="6" style="stroke:#C82930;stroke-width:1.0;" width="6" x="336.31" y="191.2453"/><text fill="#000000" font-family="sans-serif" font-size="14" lengthAdjust="spacing" textLength="214.792" x="348.31" y="197.592">serverCpClientMap[serverInfo]</text><line style="stroke:#181818;stroke-width:0.5;" x1="329.31" x2="651.9028" y1="204.8938" y2="204.8938"/></g><!--class Bootstrapper--><g id="elem_Bootstrapper"><rect codeLine="10" fill="#F1F1F1" height="48" id="Bootstrapper" rx="2.5" ry="2.5" style="stroke:#181818;stroke-width:0.5;" width="123.4854" x="38.87" y="282.04"/><ellipse cx="53.87" cy="298.04" fill="#A9DCDF" rx="11" ry="11" style="stroke:#181818;stroke-width:1.0;"/><path d="M53.9794,293.3838 L52.8231,298.4619 L55.1513,298.4619 L53.9794,293.3838 Z M52.495,291.1494 L55.4794,291.1494 L58.8388,303.54 L56.3856,303.54 L55.62,300.4775 L52.3388,300.4775 L51.5888,303.54 L49.1513,303.54 L52.495,291.1494 Z " fill="#000000"/><text fill="#000000" font-family="sans-serif" font-size="14" font-style="italic" lengthAdjust="spacing" textLength="91.4854" x="67.87" y="302.8867">Bootstrapper</text><line style="stroke:#181818;stroke-width:0.5;" x1="39.87" x2="161.3554" y1="314.04" y2="314.04"/><line style="stroke:#181818;stroke-width:0.5;" x1="39.87" x2="161.3554" y1="322.04" y2="322.04"/></g><!--class ServerInfo--><g id="elem_ServerInfo"><rect codeLine="11" fill="#F1F1F1" height="48" id="ServerInfo" rx="2.5" ry="2.5" style="stroke:#181818;stroke-width:0.5;" width="104.4063" x="652.41" y="508.19"/><ellipse cx="667.41" cy="524.19" fill="#A9DCDF" rx="11" ry="11" style="stroke:#181818;stroke-width:1.0;"/><path d="M667.5194,519.5338 L666.3631,524.6119 L668.6913,524.6119 L667.5194,519.5338 Z M666.035,517.2994 L669.0194,517.2994 L672.3788,529.69 L669.9256,529.69 L669.16,526.6275 L665.8788,526.6275 L665.1288,529.69 L662.6913,529.69 L666.035,517.2994 Z " fill="#000000"/><text fill="#000000" font-family="sans-serif" font-size="14" font-style="italic" lengthAdjust="spacing" textLength="72.4063" x="681.41" y="529.0367">ServerInfo</text><line style="stroke:#181818;stroke-width:0.5;" x1="653.41" x2="755.8163" y1="540.19" y2="540.19"/><line style="stroke:#181818;stroke-width:0.5;" x1="653.41" x2="755.8163" y1="548.19" y2="548.19"/></g><!--class BootstrapperImpl--><g id="elem_BootstrapperImpl"><rect codeLine="12" fill="#F1F1F1" height="48" id="BootstrapperImpl" rx="2.5" ry="2.5" style="stroke:#181818;stroke-width:0.5;" width="154.0283" x="23.59" y="399.19"/><ellipse cx="38.59" cy="415.19" fill="#A9DCDF" rx="11" ry="11" style="stroke:#181818;stroke-width:1.0;"/><path d="M38.6994,410.5338 L37.5431,415.6119 L39.8713,415.6119 L38.6994,410.5338 Z M37.215,408.2994 L40.1994,408.2994 L43.5588,420.69 L41.1056,420.69 L40.34,417.6275 L37.0588,417.6275 L36.3088,420.69 L33.8713,420.69 L37.215,408.2994 Z " fill="#000000"/><text fill="#000000" font-family="sans-serif" font-size="14" font-style="italic" lengthAdjust="spacing" textLength="122.0283" x="52.59" y="420.0367">BootstrapperImpl</text><line style="stroke:#181818;stroke-width:0.5;" x1="24.59" x2="176.6183" y1="431.19" y2="431.19"/><line style="stroke:#181818;stroke-width:0.5;" x1="24.59" x2="176.6183" y1="439.19" y2="439.19"/></g><!--class GrpcBootstrapperImpl--><g id="elem_GrpcBootstrapperImpl"><rect codeLine="13" fill="#F1F1F1" height="48" id="GrpcBootstrapperImpl" rx="2.5" ry="2.5" style="stroke:#181818;stroke-width:0.5;" width="187.2168" x="7" y="508.19"/><ellipse cx="22" cy="524.19" fill="#ADD1B2" rx="11" ry="11" style="stroke:#181818;stroke-width:1.0;"/><path d="M24.9688,529.8306 Q24.3906,530.1275 23.75,530.2681 Q23.1094,530.4244 22.4063,530.4244 Q19.9063,530.4244 18.5781,528.7838 Q17.2656,527.1275 17.2656,524.0025 Q17.2656,520.8775 18.5781,519.2213 Q19.9063,517.565 22.4063,517.565 Q23.1094,517.565 23.75,517.7213 Q24.4063,517.8775 24.9688,518.1744 L24.9688,520.8931 Q24.3438,520.315 23.75,520.0494 Q23.1563,519.7681 22.5313,519.7681 Q21.1875,519.7681 20.5,520.8463 Q19.8125,521.9088 19.8125,524.0025 Q19.8125,526.0963 20.5,527.1744 Q21.1875,528.2369 22.5313,528.2369 Q23.1563,528.2369 23.75,527.9713 Q24.3438,527.69 24.9688,527.1119 L24.9688,529.8306 Z " fill="#000000"/><text fill="#000000" font-family="sans-serif" font-size="14" lengthAdjust="spacing" textLength="155.2168" x="36" y="529.0367">GrpcBootstrapperImpl</text><line style="stroke:#181818;stroke-width:0.5;" x1="8" x2="193.2168" y1="540.19" y2="540.19"/><line style="stroke:#181818;stroke-width:0.5;" x1="8" x2="193.2168" y1="548.19" y2="548.19"/></g><!--class XdsTransportFactory--><g id="elem_XdsTransportFactory"><rect codeLine="14" fill="#F1F1F1" height="64.2969" id="XdsTransportFactory" rx="2.5" ry="2.5" style="stroke:#181818;stroke-width:0.5;" width="177.9473" x="401.63" y="273.89"/><ellipse cx="416.63" cy="289.89" fill="#B4A7E5" rx="11" ry="11" style="stroke:#181818;stroke-width:1.0;"/><path d="M412.5519,285.6556 L412.5519,283.4994 L419.9425,283.4994 L419.9425,285.6556 L417.4738,285.6556 L417.4738,293.7338 L419.9425,293.7338 L419.9425,295.89 L412.5519,295.89 L412.5519,293.7338 L415.0206,293.7338 L415.0206,285.6556 L412.5519,285.6556 Z " fill="#000000"/><text fill="#000000" font-family="sans-serif" font-size="14" font-style="italic" lengthAdjust="spacing" textLength="145.9473" x="430.63" y="294.7367">XdsTransportFactory</text><line style="stroke:#181818;stroke-width:0.5;" x1="402.63" x2="578.5773" y1="305.89" y2="305.89"/><line style="stroke:#181818;stroke-width:0.5;" x1="402.63" x2="578.5773" y1="313.89" y2="313.89"/><ellipse cx="412.63" cy="327.5384" fill="#84BE84" rx="3" ry="3" style="stroke:#038048;stroke-width:1.0;"/><text fill="#000000" font-family="sans-serif" font-size="14" lengthAdjust="spacing" textLength="55.6719" x="421.63" y="330.8851">create()</text></g><!--class GrpcXdsTransportFactory--><g id="elem_GrpcXdsTransportFactory"><rect codeLine="17" fill="#F1F1F1" height="48" id="GrpcXdsTransportFactory" rx="2.5" ry="2.5" style="stroke:#181818;stroke-width:0.5;" width="211.1357" x="449.04" y="399.19"/><ellipse cx="464.04" cy="415.19" fill="#ADD1B2" rx="11" ry="11" style="stroke:#181818;stroke-width:1.0;"/><path d="M467.0088,420.8306 Q466.4306,421.1275 465.79,421.2681 Q465.1494,421.4244 464.4463,421.4244 Q461.9463,421.4244 460.6181,419.7838 Q459.3056,418.1275 459.3056,415.0025 Q459.3056,411.8775 460.6181,410.2213 Q461.9463,408.565 464.4463,408.565 Q465.1494,408.565 465.79,408.7213 Q466.4463,408.8775 467.0088,409.1744 L467.0088,411.8931 Q466.3838,411.315 465.79,411.0494 Q465.1963,410.7681 464.5713,410.7681 Q463.2275,410.7681 462.54,411.8463 Q461.8525,412.9088 461.8525,415.0025 Q461.8525,417.0963 462.54,418.1744 Q463.2275,419.2369 464.5713,419.2369 Q465.1963,419.2369 465.79,418.9713 Q466.3838,418.69 467.0088,418.1119 L467.0088,420.8306 Z " fill="#000000"/><text fill="#000000" font-family="sans-serif" font-size="14" lengthAdjust="spacing" textLength="179.1357" x="478.04" y="420.0367">GrpcXdsTransportFactory</text><line style="stroke:#181818;stroke-width:0.5;" x1="450.04" x2="659.1757" y1="431.19" y2="431.19"/><line style="stroke:#181818;stroke-width:0.5;" x1="450.04" x2="659.1757" y1="439.19" y2="439.19"/></g><!--class XdsTransport--><g id="elem_XdsTransport"><rect codeLine="18" fill="#F1F1F1" height="48" id="XdsTransport" rx="2.5" ry="2.5" style="stroke:#181818;stroke-width:0.5;" width="125.5225" x="363.85" y="508.19"/><ellipse cx="378.85" cy="524.19" fill="#B4A7E5" rx="11" ry="11" style="stroke:#181818;stroke-width:1.0;"/><path d="M374.7719,519.9556 L374.7719,517.7994 L382.1625,517.7994 L382.1625,519.9556 L379.6938,519.9556 L379.6938,528.0338 L382.1625,528.0338 L382.1625,530.19 L374.7719,530.19 L374.7719,528.0338 L377.2406,528.0338 L377.2406,519.9556 L374.7719,519.9556 Z " fill="#000000"/><text fill="#000000" font-family="sans-serif" font-size="14" font-style="italic" lengthAdjust="spacing" textLength="93.5225" x="392.85" y="529.0367">XdsTransport</text><line style="stroke:#181818;stroke-width:0.5;" x1="364.85" x2="488.3725" y1="540.19" y2="540.19"/><line style="stroke:#181818;stroke-width:0.5;" x1="364.85" x2="488.3725" y1="548.19" y2="548.19"/></g><!--class GrpcXdsTransport--><g id="elem_GrpcXdsTransport"><rect codeLine="19" fill="#F1F1F1" height="48" id="GrpcXdsTransport" rx="2.5" ry="2.5" style="stroke:#181818;stroke-width:0.5;" width="158.7109" x="347.25" y="617.19"/><ellipse cx="362.25" cy="633.19" fill="#ADD1B2" rx="11" ry="11" style="stroke:#181818;stroke-width:1.0;"/><path d="M365.2188,638.8306 Q364.6406,639.1275 364,639.2681 Q363.3594,639.4244 362.6563,639.4244 Q360.1563,639.4244 358.8281,637.7838 Q357.5156,636.1275 357.5156,633.0025 Q357.5156,629.8775 358.8281,628.2213 Q360.1563,626.565 362.6563,626.565 Q363.3594,626.565 364,626.7213 Q364.6563,626.8775 365.2188,627.1744 L365.2188,629.8931 Q364.5938,629.315 364,629.0494 Q363.4063,628.7681 362.7813,628.7681 Q361.4375,628.7681 360.75,629.8463 Q360.0625,630.9088 360.0625,633.0025 Q360.0625,635.0963 360.75,636.1744 Q361.4375,637.2369 362.7813,637.2369 Q363.4063,637.2369 364,636.9713 Q364.5938,636.69 365.2188,636.1119 L365.2188,638.8306 Z " fill="#000000"/><text fill="#000000" font-family="sans-serif" font-size="14" lengthAdjust="spacing" textLength="126.7109" x="376.25" y="638.0367">GrpcXdsTransport</text><line style="stroke:#181818;stroke-width:0.5;" x1="348.25" x2="504.9609" y1="649.19" y2="649.19"/><line style="stroke:#181818;stroke-width:0.5;" x1="348.25" x2="504.9609" y1="657.19" y2="657.19"/></g><!--class BootstrapInfo--><g id="elem_BootstrapInfo"><rect codeLine="20" fill="#F1F1F1" height="48" id="BootstrapInfo" rx="2.5" ry="2.5" style="stroke:#181818;stroke-width:0.5;" width="126.7256" x="240.25" y="282.04"/><ellipse cx="255.25" cy="298.04" fill="#A9DCDF" rx="11" ry="11" style="stroke:#181818;stroke-width:1.0;"/><path d="M255.3594,293.3838 L254.2031,298.4619 L256.5313,298.4619 L255.3594,293.3838 Z M253.875,291.1494 L256.8594,291.1494 L260.2188,303.54 L257.7656,303.54 L257,300.4775 L253.7188,300.4775 L252.9688,303.54 L250.5313,303.54 L253.875,291.1494 Z " fill="#000000"/><text fill="#000000" font-family="sans-serif" font-size="14" font-style="italic" lengthAdjust="spacing" textLength="94.7256" x="269.25" y="302.8867">BootstrapInfo</text><line style="stroke:#181818;stroke-width:0.5;" x1="241.25" x2="365.9756" y1="314.04" y2="314.04"/><line style="stroke:#181818;stroke-width:0.5;" x1="241.25" x2="365.9756" y1="322.04" y2="322.04"/></g><!--class ResourceSubscriber--><g id="elem_ResourceSubscriber"><rect codeLine="21" fill="#F1F1F1" height="48" id="ResourceSubscriber" rx="2.5" ry="2.5" style="stroke:#181818;stroke-width:0.5;" width="171.6787" x="614.77" y="282.04"/><ellipse cx="629.77" cy="298.04" fill="#ADD1B2" rx="11" ry="11" style="stroke:#181818;stroke-width:1.0;"/><path d="M632.7388,303.6806 Q632.1606,303.9775 631.52,304.1181 Q630.8794,304.2744 630.1763,304.2744 Q627.6763,304.2744 626.3481,302.6338 Q625.0356,300.9775 625.0356,297.8525 Q625.0356,294.7275 626.3481,293.0713 Q627.6763,291.415 630.1763,291.415 Q630.8794,291.415 631.52,291.5713 Q632.1763,291.7275 632.7388,292.0244 L632.7388,294.7431 Q632.1138,294.165 631.52,293.8994 Q630.9263,293.6181 630.3013,293.6181 Q628.9575,293.6181 628.27,294.6963 Q627.5825,295.7588 627.5825,297.8525 Q627.5825,299.9463 628.27,301.0244 Q628.9575,302.0869 630.3013,302.0869 Q630.9263,302.0869 631.52,301.8213 Q632.1138,301.54 632.7388,300.9619 L632.7388,303.6806 Z " fill="#000000"/><text fill="#000000" font-family="sans-serif" font-size="14" lengthAdjust="spacing" textLength="139.6787" x="643.77" y="302.8867">ResourceSubscriber</text><line style="stroke:#181818;stroke-width:0.5;" x1="615.77" x2="785.4487" y1="314.04" y2="314.04"/><line style="stroke:#181818;stroke-width:0.5;" x1="615.77" x2="785.4487" y1="322.04" y2="322.04"/></g><!--class ControlPlaneClient--><g id="elem_ControlPlaneClient"><rect codeLine="22" fill="#F1F1F1" height="48" id="ControlPlaneClient" rx="2.5" ry="2.5" style="stroke:#181818;stroke-width:0.5;" width="161.8418" x="694.69" y="399.19"/><ellipse cx="709.69" cy="415.19" fill="#ADD1B2" rx="11" ry="11" style="stroke:#181818;stroke-width:1.0;"/><path d="M712.6588,420.8306 Q712.0806,421.1275 711.44,421.2681 Q710.7994,421.4244 710.0963,421.4244 Q707.5963,421.4244 706.2681,419.7838 Q704.9556,418.1275 704.9556,415.0025 Q704.9556,411.8775 706.2681,410.2213 Q707.5963,408.565 710.0963,408.565 Q710.7994,408.565 711.44,408.7213 Q712.0963,408.8775 712.6588,409.1744 L712.6588,411.8931 Q712.0338,411.315 711.44,411.0494 Q710.8463,410.7681 710.2213,410.7681 Q708.8775,410.7681 708.19,411.8463 Q707.5025,412.9088 707.5025,415.0025 Q707.5025,417.0963 708.19,418.1744 Q708.8775,419.2369 710.2213,419.2369 Q710.8463,419.2369 711.44,418.9713 Q712.0338,418.69 712.6588,418.1119 L712.6588,420.8306 Z " fill="#000000"/><text fill="#000000" font-family="sans-serif" font-size="14" lengthAdjust="spacing" textLength="129.8418" x="723.69" y="420.0367">ControlPlaneClient</text><line style="stroke:#181818;stroke-width:0.5;" x1="695.69" x2="855.5318" y1="431.19" y2="431.19"/><line style="stroke:#181818;stroke-width:0.5;" x1="695.69" x2="855.5318" y1="439.19" y2="439.19"/></g><!--class ManagedChannel--><g id="elem_ManagedChannel"><rect codeLine="23" fill="#F1F1F1" height="48" id="ManagedChannel" rx="2.5" ry="2.5" style="stroke:#181818;stroke-width:0.5;" width="153.9736" x="349.62" y="726.19"/><ellipse cx="364.62" cy="742.19" fill="#A9DCDF" rx="11" ry="11" style="stroke:#181818;stroke-width:1.0;"/><path d="M364.7294,737.5338 L363.5731,742.6119 L365.9013,742.6119 L364.7294,737.5338 Z M363.245,735.2994 L366.2294,735.2994 L369.5888,747.69 L367.1356,747.69 L366.37,744.6275 L363.0888,744.6275 L362.3388,747.69 L359.9013,747.69 L363.245,735.2994 Z " fill="#000000"/><text fill="#000000" font-family="sans-serif" font-size="14" font-style="italic" lengthAdjust="spacing" textLength="121.9736" x="378.62" y="747.0367">ManagedChannel</text><line style="stroke:#181818;stroke-width:0.5;" x1="350.62" x2="502.5936" y1="758.19" y2="758.19"/><line style="stroke:#181818;stroke-width:0.5;" x1="350.62" x2="502.5936" y1="766.19" y2="766.19"/></g><!--class AdsStream--><g id="elem_AdsStream"><rect codeLine="24" fill="#F1F1F1" height="48" id="AdsStream" rx="2.5" ry="2.5" style="stroke:#181818;stroke-width:0.5;" width="108.7197" x="792.25" y="508.19"/><ellipse cx="807.25" cy="524.19" fill="#ADD1B2" rx="11" ry="11" style="stroke:#181818;stroke-width:1.0;"/><path d="M810.2188,529.8306 Q809.6406,530.1275 809,530.2681 Q808.3594,530.4244 807.6563,530.4244 Q805.1563,530.4244 803.8281,528.7838 Q802.5156,527.1275 802.5156,524.0025 Q802.5156,520.8775 803.8281,519.2213 Q805.1563,517.565 807.6563,517.565 Q808.3594,517.565 809,517.7213 Q809.6563,517.8775 810.2188,518.1744 L810.2188,520.8931 Q809.5938,520.315 809,520.0494 Q808.4063,519.7681 807.7813,519.7681 Q806.4375,519.7681 805.75,520.8463 Q805.0625,521.9088 805.0625,524.0025 Q805.0625,526.0963 805.75,527.1744 Q806.4375,528.2369 807.7813,528.2369 Q808.4063,528.2369 809,527.9713 Q809.5938,527.69 810.2188,527.1119 L810.2188,529.8306 Z " fill="#000000"/><text fill="#000000" font-family="sans-serif" font-size="14" lengthAdjust="spacing" textLength="76.7197" x="821.25" y="529.0367">AdsStream</text><line style="stroke:#181818;stroke-width:0.5;" x1="793.25" x2="899.9697" y1="540.19" y2="540.19"/><line style="stroke:#181818;stroke-width:0.5;" x1="793.25" x2="899.9697" y1="548.19" y2="548.19"/></g><!--reverse link ResourceSubscriber to ControlPlaneClient--><g id="link_ResourceSubscriber_ControlPlaneClient"><path codeLine="26" d="M722.338,340.396 C735.348,360.376 747.45,378.95 760.45,398.92 " fill="none" id="ResourceSubscriber-backto-ControlPlaneClient" style="stroke:#181818;stroke-width:1.0;"/><polygon fill="#181818" points="715.79,330.34,715.712,337.5507,722.338,340.396,722.416,333.1853,715.79,330.34" style="stroke:#181818;stroke-width:1.0;"/></g><!--reverse link ControlPlaneClient to XdsTransport--><g id="link_ControlPlaneClient_XdsTransport"><path codeLine="27" d="M687.5473,451.188 C624.7373,470.448 548.39,493.85 489.61,511.87 " fill="none" id="ControlPlaneClient-backto-XdsTransport" style="stroke:#181818;stroke-width:1.0;"/><polygon fill="#181818" points="699.02,447.67,692.111,445.6047,687.5473,451.188,694.4563,453.2532,699.02,447.67" style="stroke:#181818;stroke-width:1.0;"/></g><!--reverse link ControlPlaneClient to ServerInfo--><g id="link_ControlPlaneClient_ServerInfo"><path codeLine="28" d="M753.3943,457.6684 C741.5543,475.5084 731.98,489.94 720.15,507.76 " fill="none" id="ControlPlaneClient-backto-ServerInfo" style="stroke:#181818;stroke-width:1.0;"/><polygon fill="#181818" points="760.03,447.67,753.3794,450.4573,753.3943,457.6684,760.0449,454.8811,760.03,447.67" style="stroke:#181818;stroke-width:1.0;"/></g><!--reverse link ControlPlaneClient to AdsStream--><g id="link_ControlPlaneClient_AdsStream"><path codeLine="29" d="M797.8257,457.6684 C809.6657,475.5084 819.23,489.94 831.06,507.76 " fill="none" id="ControlPlaneClient-backto-AdsStream" style="stroke:#181818;stroke-width:1.0;"/><polygon fill="#181818" points="791.19,447.67,791.1751,454.8811,797.8257,457.6684,797.8406,450.4573,791.19,447.67" style="stroke:#181818;stroke-width:1.0;"/></g><!--reverse link XdsClientImpl to ResourceSubscriber--><g id="link_XdsClientImpl_ResourceSubscriber"><path codeLine="30" d="M564.3616,219.7569 C599.9716,242.0469 632.98,262.71 663.19,281.62 " fill="none" id="XdsClientImpl-backto-ResourceSubscriber" style="stroke:#181818;stroke-width:1.0;"/><polygon fill="#181818" points="554.19,213.39,557.1535,219.964,564.3616,219.7569,561.3981,213.1829,554.19,213.39" style="stroke:#181818;stroke-width:1.0;"/></g><!--reverse link XdsClientImpl to ControlPlaneClient--><g id="link_XdsClientImpl_ControlPlaneClient"><path codeLine="31" d="M664.8808,189.6394 C721.8108,203.0394 768.55,225.84 803.61,273.89 C830.79,311.14 807.36,367.27 790.07,398.71 " fill="none" id="XdsClientImpl-backto-ControlPlaneClient" style="stroke:#181818;stroke-width:1.0;"/><polygon fill="#181818" points="653.2,186.89,658.1239,192.1583,664.8808,189.6394,659.9569,184.3711,653.2,186.89" style="stroke:#181818;stroke-width:1.0;"/></g><!--reverse link XdsClientImpl to XdsTransportFactory--><g id="link_XdsClientImpl_XdsTransportFactory"><path codeLine="32" d="M490.61,225.39 C490.61,244.73 490.61,255.65 490.61,273.72 " fill="none" id="XdsClientImpl-backto-XdsTransportFactory" style="stroke:#181818;stroke-width:1.0;"/><polygon fill="#181818" points="490.61,213.39,486.61,219.39,490.61,225.39,494.61,219.39,490.61,213.39" style="stroke:#181818;stroke-width:1.0;"/></g><!--reverse link XdsClientImpl to BootstrapInfo--><g id="link_XdsClientImpl_BootstrapInfo"><path codeLine="33" d="M424.1728,220.2909 C392.4628,242.5809 363.83,262.71 336.93,281.62 " fill="none" id="XdsClientImpl-backto-BootstrapInfo" style="stroke:#181818;stroke-width:1.0;"/><polygon fill="#181818" points="433.99,213.39,426.7811,213.568,424.1728,220.2909,431.3817,220.1128,433.99,213.39" style="stroke:#181818;stroke-width:1.0;"/></g><!--reverse link XdsClientPoolFactory to SharedXdsClientPoolProvider--><g id="link_XdsClientPoolFactory_SharedXdsClientPoolProvider"><path codeLine="34" d="M186.9333,88.547 C178.3333,112.087 172.95,126.86 165.16,148.19 " fill="none" id="XdsClientPoolFactory-backto-SharedXdsClientPoolProvider" style="stroke:#181818;stroke-width:1.0;"/><polygon fill="none" points="193.11,71.64,181.2976,86.4881,192.5689,90.6059,193.11,71.64" style="stroke:#181818;stroke-width:1.0;"/></g><!--link XdsClientPoolFactory to XdsClient--><g id="link_XdsClientPoolFactory_XdsClient"><path codeLine="35" d="M295.19,39.15 C322.76,39.15 346.93,39.15 374.02,39.15 " fill="none" id="XdsClientPoolFactory-to-XdsClient" style="stroke:#181818;stroke-width:1.0;"/><polygon fill="#181818" points="380.02,39.15,371.02,35.15,375.02,39.15,371.02,43.15,380.02,39.15" style="stroke:#181818;stroke-width:1.0;"/><text fill="#000000" font-family="sans-serif" font-size="13" lengthAdjust="spacing" textLength="41.5518" x="317" y="32.2169">create</text></g><!--reverse link Bootstrapper to BootstrapperImpl--><g id="link_Bootstrapper_BootstrapperImpl"><path codeLine="36" d="M100.61,348.34 C100.61,368.32 100.61,378.95 100.61,398.92 " fill="none" id="Bootstrapper-backto-BootstrapperImpl" style="stroke:#181818;stroke-width:1.0;"/><polygon fill="none" points="100.61,330.34,94.61,348.34,106.61,348.34,100.61,330.34" style="stroke:#181818;stroke-width:1.0;"/></g><!--link Bootstrapper to BootstrapInfo--><g id="link_Bootstrapper_BootstrapInfo"><path codeLine="37" d="M162.62,306.04 C187.1,306.04 209.22,306.04 233.87,306.04 " fill="none" id="Bootstrapper-to-BootstrapInfo" style="stroke:#181818;stroke-width:1.0;"/><polygon fill="#181818" points="239.87,306.04,230.87,302.04,234.87,306.04,230.87,310.04,239.87,306.04" style="stroke:#181818;stroke-width:1.0;"/><text fill="#000000" font-family="sans-serif" font-size="13" lengthAdjust="spacing" textLength="41.5518" x="180.8" y="299.1069">create</text></g><!--reverse link SharedXdsClientPoolProvider to Bootstrapper--><g id="link_SharedXdsClientPoolProvider_Bootstrapper"><path codeLine="38" d="M141.893,208.1383 C131.693,232.0583 120.7,257.89 110.53,281.75 " fill="none" id="SharedXdsClientPoolProvider-backto-Bootstrapper" style="stroke:#181818;stroke-width:1.0;"/><polygon fill="#181818" points="146.6,197.1,140.5671,201.0502,141.893,208.1383,147.926,204.1881,146.6,197.1" style="stroke:#181818;stroke-width:1.0;"/></g><!--reverse link XdsClient to XdsClientImpl--><g id="link_XdsClient_XdsClientImpl"><path codeLine="39" d="M472.0597,81.2823 C475.9397,100.1823 477.86,109.54 482.43,131.8 " fill="none" id="XdsClient-backto-XdsClientImpl" style="stroke:#181818;stroke-width:1.0;"/><polygon fill="none" points="468.44,63.65,466.1823,82.4889,477.9372,80.0757,468.44,63.65" style="stroke:#181818;stroke-width:1.0;"/></g><!--reverse link BootstrapperImpl to GrpcBootstrapperImpl--><g id="link_BootstrapperImpl_GrpcBootstrapperImpl"><path codeLine="40" d="M100.61,465.67 C100.61,483.51 100.61,489.94 100.61,507.76 " fill="none" id="BootstrapperImpl-backto-GrpcBootstrapperImpl" style="stroke:#181818;stroke-width:1.0;"/><polygon fill="none" points="100.61,447.67,94.61,465.67,106.61,465.67,100.61,447.67" style="stroke:#181818;stroke-width:1.0;"/></g><!--reverse link XdsTransportFactory to GrpcXdsTransportFactory--><g id="link_XdsTransportFactory_GrpcXdsTransportFactory"><path codeLine="41" d="M516.843,354.2441 C527.423,373.2841 531.95,381.43 541.61,398.8 " fill="none" id="XdsTransportFactory-backto-GrpcXdsTransportFactory" style="stroke:#181818;stroke-width:1.0;"/><polygon fill="none" points="508.1,338.51,511.5983,357.1584,522.0877,351.3297,508.1,338.51" style="stroke:#181818;stroke-width:1.0;"/></g><!--reverse link XdsTransport to GrpcXdsTransport--><g id="link_XdsTransport_GrpcXdsTransport"><path codeLine="42" d="M426.61,574.67 C426.61,592.51 426.61,598.94 426.61,616.76 " fill="none" id="XdsTransport-backto-GrpcXdsTransport" style="stroke:#181818;stroke-width:1.0;"/><polygon fill="none" points="426.61,556.67,420.61,574.67,432.61,574.67,426.61,556.67" style="stroke:#181818;stroke-width:1.0;"/></g><!--reverse link GrpcXdsTransport to ManagedChannel--><g id="link_GrpcXdsTransport_ManagedChannel"><path codeLine="43" d="M426.61,677.67 C426.61,695.51 426.61,707.94 426.61,725.76 " fill="none" id="GrpcXdsTransport-backto-ManagedChannel" style="stroke:#181818;stroke-width:1.0;"/><polygon fill="#181818" points="426.61,665.67,422.61,671.67,426.61,677.67,430.61,671.67,426.61,665.67" style="stroke:#181818;stroke-width:1.0;"/></g><!--link XdsTransportFactory to XdsTransport--><g id="link_XdsTransportFactory_XdsTransport"><path codeLine="44" d="M440.4,338.52 C420.34,354.07 399.46,374.76 388.61,399.19 C372.34,435.8 390.6286,476.1104 407.2986,503.0004 " fill="none" id="XdsTransportFactory-to-XdsTransport" style="stroke:#181818;stroke-width:1.0;"/><polygon fill="#181818" points="410.46,508.1,409.1176,498.3431,407.8255,503.8504,402.3182,502.5582,410.46,508.1" style="stroke:#181818;stroke-width:1.0;"/><text fill="#000000" font-family="sans-serif" font-size="13" lengthAdjust="spacing" textLength="41.5518" x="389.61" y="427.7569">create</text></g><!--SRC=[VLFBRi8m4BpxAtpiG_c12Y6raLfnG23IGoN4mN4MI9NOrjeWeRR_tYI697w4wtfsF3ExMme3k6SSw5UXqwe4OTPILk-C6uaN-aCeVJw0MM6Am0myF98_mYkcDSsE3A5mkjOepsK1I5Yk3JOKr49x49sjyc_W7NXElCT5hIewsy0-bQT6rK0zwka49GXQdf13Tiernp87r5jpKR3R2bR3heLem3DWgYp3agcjhIp4NkuQ3vx2DobDMr0gL9_rZVUwMlLNHn-eUF1KZeF-H2QqacYSdBaVSKiKGKzmJJHDYkuSsTec2FJwa4fXi1binGJOA7sw9HFi04LwP4B0BO7NGcUcSLCJ4bBJfoI94OUb3kbucS2CHZI161Iv-zQ-HTo7e8ZW41GRLeXo9n2zkzblw-hEXKMxalder5wetISoNaLB72od0sbO78K3qnr1hZ4rLcZ_T68WlWABYHvEx5nwz4JWVIsE97wXK-zjSknV6_3GTalc7m00]--></g></svg>